<?xml version="1.0" encoding="UTF-8" standalone="no"?>
<!-- Created with Inkscape (http://www.inkscape.org/) -->

<svg
   width="103.549mm"
   height="103.549mm"
   viewBox="0 0 103.549 103.549"
   version="1.1"
   id="svg1"
   sodipodi:docname="checkbox1.svg"
   inkscape:export-filename="checkbox1.png"
   inkscape:export-xdpi="96"
   inkscape:export-ydpi="96"
   inkscape:version="1.3 (0e150ed6c4, 2023-07-21)"
   xmlns:inkscape="http://www.inkscape.org/namespaces/inkscape"
   xmlns:sodipodi="http://sodipodi.sourceforge.net/DTD/sodipodi-0.dtd"
   xmlns="http://www.w3.org/2000/svg"
   xmlns:svg="http://www.w3.org/2000/svg">
  <sodipodi:namedview
     id="namedview1"
     pagecolor="#505050"
     bordercolor="#eeeeee"
     borderopacity="1"
     inkscape:showpageshadow="0"
     inkscape:pageopacity="0"
     inkscape:pagecheckerboard="0"
     inkscape:deskcolor="#505050"
     inkscape:document-units="mm"
     inkscape:zoom="0.72426347"
     inkscape:cx="396.95499"
     inkscape:cy="561.25984"
     inkscape:window-width="1920"
     inkscape:window-height="1009"
     inkscape:window-x="-8"
     inkscape:window-y="-8"
     inkscape:window-maximized="1"
     inkscape:current-layer="layer1" />
  <defs
     id="defs1" />
  <g
     inkscape:label="Lager 1"
     inkscape:groupmode="layer"
     id="layer1">
    <g
       id="g53"
       transform="matrix(0.54925683,0,0,0.54925683,26.541989,26.542219)"
       inkscape:label="Checkbox"
       style="display:inline">
      <path
         id="path52"
         style="fill:#ffffff;fill-opacity:1;stroke:#000000;stroke-width:18.6696;stroke-dasharray:none;stroke-opacity:1"
         d="M -38.988658,45.938497 A 84.926648,84.927575 0 0 0 45.93799,130.86607 84.926648,84.927575 0 0 0 130.86463,45.938497 84.926648,84.927575 0 0 0 45.93799,-38.989077 84.926648,84.927575 0 0 0 -38.988658,45.938497 Z" />
      <path
         d="M 680.02805,61.103692 640.22397,109.0042 621.49999,93.445135 c -3.18364,-2.645508 -7.90908,-2.209322 -10.55466,0.974258 -2.64075,3.183103 -2.20106,7.904277 0.98208,10.544987 l 24.47932,20.34194 c 3.18359,2.64551 7.90901,2.2093 10.5545,-0.97431 l 44.58654,-53.655774 c 2.64549,-3.183608 2.20926,-7.909031 -0.97435,-10.55452 -3.18319,-2.640857 -7.90451,-2.201212 -10.54537,0.981976 z"
         style="display:inline;fill:#00ac1d;fill-opacity:1;stroke-width:65.8637;stroke-dasharray:none"
         id="path53"
         inkscape:label="path43"
         sodipodi:nodetypes="ccccccc"
         transform="matrix(1.2723475,0,0,1.2723475,-784.91121,-67.72815)" />
    </g>
  </g>
</svg>
